<svg inkscapeExport-filename="Ericsson_logo_shiny.png" inkscapeExport-xdpi="96" inkscapeExport-ydpi="96" inkscapeVersion="1.2 (dc2aedaf03, 2022-05-15)" sodipodiDocname="Ericsson_logo_shiny.svg" version="1.1" viewBox="0 0 64.05646 56.09162" xmlns="http://www.w3.org/2000/svg" xmlns:xlink="http://www.w3.org/1999/xlink" xmlnsCc="http://creativecommons.org/ns#" xmlnsDc="http://purl.org/dc/elements/1.1/" xmlnsRdf="http://www.w3.org/1999/02/22-rdf-syntax-ns#" xmlnsSvg="http://www.w3.org/2000/svg" xmlnsXlink="http://www.w3.org/1999/xlink">
 <defs>
  <linearGradient id="a" x1="15.4996" x2="75.415123" y1="7.3681793" y2="65.862946" gradientTransform="matrix(1.0084478 0 0 1.0084478 -.42523116 -.60706976)" gradientUnits="userSpaceOnUse">
   <stop stop-color="#f00" offset="0"/>
   <stop stop-color="#ffb000" offset=".07"/>
   <stop stop-color="#f4ff00" offset=".15795857"/>
   <stop stop-color="#5dff00" offset=".25242907"/>
   <stop stop-color="#00f111" offset=".31368315"/>
   <stop stop-color="#00eb66" offset=".34999999"/>
   <stop stop-color="#00fffe" offset=".41999999"/>
   <stop stop-color="#007fff" offset=".49000001"/>
   <stop stop-color="#0041ff" offset=".56"/>
   <stop stop-color="#0005ff" offset=".63"/>
   <stop stop-color="#5800ff" offset=".69999999"/>
   <stop stop-color="#d300ff" offset=".76999998"/>
   <stop stop-color="#ff0098" offset=".83999997"/>
   <stop stop-color="#fc0016" offset=".91000003"/>
   <stop stop-color="#ff1700" offset="1"/>
  </linearGradient>
 </defs>
 <sodipodiNamedview bordercolor="#000000" borderopacity="0.25" inkscapeCurrent-layer="Layer_1" inkscapeCx="17.25896" inkscapeCy="45.495931" inkscapeDeskcolor="#d1d1d1" inkscapePagecheckerboard="0" inkscapePageopacity="0.0" inkscapeShowpageshadow="2" inkscapeWindow-height="2066" inkscapeWindow-maximized="1" inkscapeWindow-width="3840" inkscapeWindow-x="-11" inkscapeWindow-y="-11" inkscapeZoom="18.30933" pagecolor="#ffffff" showgrid="false"/>
 <title>Ericsson logo</title>
 <path d="m7.6136721 0.10923392h48.6198849a7.5590551 7.5590551 45 0 1 7.559055 7.55905508v40.64581a7.5590551 7.5590551 135 0 1-7.559055 7.559055h-48.6198849a7.5590551 7.5590551 45 0 1-7.55905514-7.559055v-40.64581a7.5590551 7.5590551 135 0 1 7.55905514-7.55905508z" stroke="#000" stroke-width=".5"/>
 <ellipse cx="32.197342" cy="27.642977" rx="27.24789" ry="27.247889" fill="url(#a)" stroke="#000" stroke-width=".504224"/>
 <g transform="matrix(.94540337 0 0 .94540337 1.2417468 -.23764951)">
  <g transform="matrix(.6287129 0 0 .6287129 12.31327 10.588981)">
   <path d="m22.89539 14.92337a3.78649 3.78649 0 1 1-2.6048-7.1109l20.75366-7.58117a3.744 3.744 0 0 1 4.86621 2.256 3.64463 3.64463 0 0 1-2.2533 4.73932z"/>
   <path d="m22.89539 26.17478a3.78643 3.78643 0 1 1-2.6048-7.11078l20.75366-7.57251a3.73082 3.73082 0 0 1 4.86621 2.248 3.63723 3.63723 0 0 1-2.2533 4.73611z"/>
   <path d="m22.89539 37.42429a3.78631 3.78631 0 1 1-2.6048-7.1105l20.75366-7.57169a3.72937 3.72937 0 0 1 4.86621 2.2457 3.63853 3.63853 0 0 1-2.2533 4.7373z"/>
   <polygon points="6.999 55.902 0 55.902 0 46.781 6.882 46.781 6.882 48.674 2.379 48.674 2.379 50.214 6.763 50.214 6.763 52.224 2.379 52.224 2.379 53.882 6.999 53.882"/>
   <rect x="17.793579" y="46.781189" width="2.49701" height="9.1211901"/>
   <path d="m29.3053 47.01639-0.1183 1.89289c-2.0152-1.05908-5.10175-0.7063-5.10175 2.256-0.11835 3.0795 3.08655 3.55029 5.22009 2.4812l0.1178 2.01071c-3.6767 1.069-7.95325 0-7.95325-4.49191-4e-5 -4.2665 4.39431-5.45348 7.83541-4.14889z"/>
   <path d="m36.65839 46.89878-0.1178 1.89291c-1.30774-0.7063-3.67682-0.7063-3.67682 0.35321 0 1.65729 4.26648 0.48029 4.26648 3.91318 0 3.315-4.0304 3.43271-6.64569 2.59912l0.12793-2.01071c1.65161 0.716 4.03076 0.95139 4.03076-0.353 0-1.53992-4.27649-0.70621-4.27649-3.91351 0-2.7168 3.32282-3.43268 6.29163-2.4812z"/>
   <path d="m44.1286 46.89878-0.11584 1.89291c-1.30646-0.7063-3.67957-0.7063-3.67957 0.35321 0 1.65729 4.26691 0.48029 4.26691 3.91318 0 3.315-4.02722 3.43271-6.63409 2.59912l0.11786-2.01071c1.66162 0.716 4.03113 0.95139 4.03113-0.353 0-1.53992-4.26678-0.70621-4.26678-3.91351-1e-5 -2.7168 3.31194-3.43268 6.28038-2.4812z"/>
   <polygon points="61.687 52.587 61.687 46.781 64.056 46.781 64.056 55.902 61.096 55.902 57.892 49.861 57.892 55.902 55.643 55.902 55.643 46.781 58.719 46.781"/>
   <path d="m47.924 51.2829c0 1.42209 0.5993 2.96188 1.89771 2.96188 1.42633 0 2.01361-1.53979 2.01361-2.96188 0-1.18661-0.58728-2.96191-2.01361-2.96191-1.29846 1e-5 -1.89771 1.5397-1.89771 2.96191zm1.89771-4.7373c2.61694 0 4.63049 1.42218 4.63049 4.7373 0 3.1973-2.01355 4.73709-4.63049 4.73709-2.489 0-4.5025-1.53979-4.5025-4.73709-6e-5 -3.31512 2.01349-4.7373 4.50245-4.7373z"/>
   <path d="m8.77875 46.78119h4.39441c1.29761 0 2.9588 0.4707 2.9588 2.36371a2.1819 2.1819 0 0 1-1.66119 2.25558 1.28353 1.28353 0 0 1 0.83539 0.82391c0 0.11768 1.30762 3.56027 1.30762 3.678h-2.61488l-0.944-2.8443a0.90869 0.90869 0 0 0-0.83539-0.5983c-0.47192 0-1.06189-0.11771-1.06189 0v3.4426h-2.37887zm2.37885 3.7858h1.2976a1.08689 1.08689 0 0 0 1.1898-1.05942c0-0.5983-0.4718-0.95148-1.18976-0.95148h-1.29765z"/>
  </g>
 </g>
</svg>
