<svg inkscapeExport-filename="Ericsson_logo_shiny.png" inkscapeExport-xdpi="96" inkscapeExport-ydpi="96" inkscapeVersion="1.2 (dc2aedaf03, 2022-05-15)" sodipodiDocname="Ericsson_logo_shiny.svg" version="1.1" viewBox="0 0 64.056 56.092" xmlns="http://www.w3.org/2000/svg" xmlns:xlink="http://www.w3.org/1999/xlink" xmlnsCc="http://creativecommons.org/ns#" xmlnsDc="http://purl.org/dc/elements/1.1/" xmlnsRdf="http://www.w3.org/1999/02/22-rdf-syntax-ns#" xmlnsSvg="http://www.w3.org/2000/svg" xmlnsXlink="http://www.w3.org/1999/xlink">
 <defs>
  <linearGradient id="a" x1="15.5" x2="75.415" y1="7.3682" y2="65.863" gradientTransform="matrix(1.1001 0 0 1.1001 -3.0756 -2.2591)" gradientUnits="userSpaceOnUse">
   <stop stop-color="#f00" offset="0"/>
   <stop stop-color="#ffb000" offset=".07"/>
   <stop stop-color="#f4ff00" offset=".15796"/>
   <stop stop-color="#5dff00" offset=".25243"/>
   <stop stop-color="#00f111" offset=".31368"/>
   <stop stop-color="#00eb66" offset=".35"/>
   <stop stop-color="#00fffe" offset=".42"/>
   <stop stop-color="#007fff" offset=".49"/>
   <stop stop-color="#0041ff" offset=".56"/>
   <stop stop-color="#0005ff" offset=".63"/>
   <stop stop-color="#5800ff" offset=".7"/>
   <stop stop-color="#d300ff" offset=".77"/>
   <stop stop-color="#ff0098" offset=".84"/>
   <stop stop-color="#fc0016" offset=".91"/>
   <stop stop-color="#ff1700" offset="1"/>
  </linearGradient>
 </defs>
 <sodipodiNamedview bordercolor="#000000" borderopacity="0.25" inkscapeCurrent-layer="Layer_1" inkscapeCx="17.25896" inkscapeCy="45.495931" inkscapeDeskcolor="#d1d1d1" inkscapePagecheckerboard="0" inkscapePageopacity="0.0" inkscapeShowpageshadow="2" inkscapeWindow-height="2066" inkscapeWindow-maximized="1" inkscapeWindow-width="3840" inkscapeWindow-x="-11" inkscapeWindow-y="-11" inkscapeZoom="18.30933" pagecolor="#ffffff" showgrid="false"/>
 <title>Ericsson logo</title>
 <ellipse cx="32.513" cy="28.559" rx="29.725" ry="29.725" fill="url(#a)" stroke="#000" stroke-width=".55006"/>
 <g transform="matrix(1.1002 0 0 1.1002 -3.9431 -6.0267)">
  <g transform="matrix(.62871 0 0 .62871 12.313 10.589)">
   <path d="m22.895 14.923a3.7865 3.7865 0 1 1-2.6048-7.1109l20.754-7.5812a3.744 3.744 0 0 1 4.8662 2.256 3.6446 3.6446 0 0 1-2.2533 4.7393z"/>
   <path d="m22.895 26.175a3.7864 3.7864 0 1 1-2.6048-7.1108l20.754-7.5725a3.7308 3.7308 0 0 1 4.8662 2.248 3.6372 3.6372 0 0 1-2.2533 4.7361z"/>
   <path d="m22.895 37.424a3.7863 3.7863 0 1 1-2.6048-7.1105l20.754-7.5717a3.7294 3.7294 0 0 1 4.8662 2.2457 3.6385 3.6385 0 0 1-2.2533 4.7373z"/>
   <polygon points="6.763 50.214 6.763 52.224 2.379 52.224 2.379 53.882 6.999 53.882 6.999 55.902 0 55.902 0 46.781 6.882 46.781 6.882 48.674 2.379 48.674 2.379 50.214"/>
   <rect x="17.794" y="46.781" width="2.497" height="9.1212"/>
   <path d="m29.305 47.016-0.1183 1.8929c-2.0152-1.0591-5.1018-0.7063-5.1018 2.256-0.11835 3.0795 3.0866 3.5503 5.2201 2.4812l0.1178 2.0107c-3.6767 1.069-7.9532 0-7.9532-4.4919-4e-5 -4.2665 4.3943-5.4535 7.8354-4.1489z"/>
   <path d="m36.658 46.899-0.1178 1.8929c-1.3077-0.7063-3.6768-0.7063-3.6768 0.35321 0 1.6573 4.2665 0.48029 4.2665 3.9132 0 3.315-4.0304 3.4327-6.6457 2.5991l0.12793-2.0107c1.6516 0.716 4.0308 0.95139 4.0308-0.353 0-1.5399-4.2765-0.70621-4.2765-3.9135 0-2.7168 3.3228-3.4327 6.2916-2.4812z"/>
   <path d="m44.129 46.899-0.11584 1.8929c-1.3065-0.7063-3.6796-0.7063-3.6796 0.35321 0 1.6573 4.2669 0.48029 4.2669 3.9132 0 3.315-4.0272 3.4327-6.6341 2.5991l0.11786-2.0107c1.6616 0.716 4.0311 0.95139 4.0311-0.353 0-1.5399-4.2668-0.70621-4.2668-3.9135-1e-5 -2.7168 3.3119-3.4327 6.2804-2.4812z"/>
   <polygon points="57.892 49.861 57.892 55.902 55.643 55.902 55.643 46.781 58.719 46.781 61.687 52.587 61.687 46.781 64.056 46.781 64.056 55.902 61.096 55.902"/>
   <path d="m47.924 51.283c0 1.4221 0.5993 2.9619 1.8977 2.9619 1.4263 0 2.0136-1.5398 2.0136-2.9619 0-1.1866-0.58728-2.9619-2.0136-2.9619-1.2985 1e-5 -1.8977 1.5397-1.8977 2.9619zm1.8977-4.7373c2.6169 0 4.6305 1.4222 4.6305 4.7373 0 3.1973-2.0136 4.7371-4.6305 4.7371-2.489 0-4.5025-1.5398-4.5025-4.7371-6e-5 -3.3151 2.0135-4.7373 4.5024-4.7373z"/>
   <path d="m8.7788 46.781h4.3944c1.2976 0 2.9588 0.4707 2.9588 2.3637a2.1819 2.1819 0 0 1-1.6612 2.2556 1.2835 1.2835 0 0 1 0.83539 0.82391c0 0.11768 1.3076 3.5603 1.3076 3.678h-2.6149l-0.944-2.8443a0.90869 0.90869 0 0 0-0.83539-0.5983c-0.47192 0-1.0619-0.11771-1.0619 0v3.4426h-2.3789zm2.3788 3.7858h1.2976a1.0869 1.0869 0 0 0 1.1898-1.0594c0-0.5983-0.4718-0.95148-1.1898-0.95148h-1.2976z"/>
  </g>
 </g>
</svg>
